<?xml version="1.0" encoding="utf-8"?>
<!-- Generator: Adobe Illustrator 28.1.0, SVG Export Plug-In . SVG Version: 6.00 Build 0)  -->
<svg version="1.1" id="Logo" xmlns="http://www.w3.org/2000/svg" xmlns:xlink="http://www.w3.org/1999/xlink" x="0px" y="0px"
	 viewBox="0 0 1024 268" style="enable-background:new 0 0 1024 268;" xml:space="preserve">
<style type="text/css">
	.st0{fill:#FF9800;}
</style>
<g>
	<rect x="906.72" y="74.04" class="st0" width="33.71" height="119.89"/>
	<polygon class="st0" points="988.9,134.13 988.83,134.13 988.9,133.86 1023.5,74.04 989.8,74.04 955.19,133.86 955.38,134.13 
		955.19,134.13 955.19,134.13 955.19,134.13 989.8,193.94 1023.5,193.94 1023.5,193.94 1023.5,193.94 	"/>
	<polygon class="st0" points="617.04,74.06 604.14,74.06 595.36,74.06 589.97,74.06 520.74,193.94 554.84,193.94 604.14,108.58 
		604.14,193.94 638.21,193.94 638.21,74.06 619.91,74.06 	"/>
	<polygon class="st0" points="247.78,143.96 300.85,143.96 312.33,124.3 258.51,124.3 	"/>
	<path class="st0" d="M236.93,119.52l0.03,0.01c0-15.15,4.53-20.84,19.27-20.84h47.96l14.35-24.85H251.2
		c-28.68,0-47.63,10.05-47.63,46.39v73.95h103.61l14.34-24.85h-84.6V119.52z"/>
	<polygon class="st0" points="819.35,143.96 872.42,143.96 883.91,124.3 830.08,124.3 	"/>
	<path class="st0" d="M809.67,119.52l0.03,0.01c0-15.15,4.54-20.84,19.28-20.84h47.95l14.36-24.85h-67.34
		c-28.68,0-47.62,10.05-47.62,46.39v73.95h103.61l14.35-24.85h-84.61V119.52z"/>
	<polygon class="st0" points="653.09,98.99 695.03,98.99 695.03,193.94 728.02,193.94 728.02,98.99 759.05,98.99 773.44,74.06 
		667.5,74.06 	"/>
	<path class="st0" d="M398.17,73.83h-57.8v120.34h59.35c41.68,0,60.43-16.08,60.43-61.12C460.15,90.46,441.58,73.83,398.17,73.83z
		 M390.99,169.37h-18.3V98.63h18.3c26.65,0,35,4.7,35,34.46C425.99,162.86,417.64,169.37,390.99,169.37z"/>
	<rect x="478.97" y="74.06" class="st0" width="33.7" height="119.88"/>
	<polygon class="st0" points="109.72,134.98 109.72,74.06 69.64,74.18 0.5,193.81 33.56,193.81 76.01,120.38 76.01,193.32 
		75.72,193.81 76.01,193.81 76.01,193.94 109.72,193.94 151.23,120.38 151.23,193.94 184.94,193.94 184.94,74.06 144.85,74.18 	"/>
</g>
</svg>
