<?xml version="1.0" encoding="UTF-8" standalone="no"?>
<!-- Created with Inkscape (http://www.inkscape.org/) -->
<svg
   xmlns:dc="http://purl.org/dc/elements/1.1/"
   xmlns:cc="http://web.resource.org/cc/"
   xmlns:rdf="http://www.w3.org/1999/02/22-rdf-syntax-ns#"
   xmlns:svg="http://www.w3.org/2000/svg"
   xmlns="http://www.w3.org/2000/svg"
   xmlns:sodipodi="http://sodipodi.sourceforge.net/DTD/sodipodi-0.dtd"
   xmlns:inkscape="http://www.inkscape.org/namespaces/inkscape"
   width="651.60071"
   height="297.22052"
   id="svg32722"
   sodipodi:version="0.32"
   inkscape:version="0.44"
   version="1.0"
   sodipodi:docbase="E:\Logos"
   sodipodi:docname="VIA_neues_Logo.svg">
  <defs
     id="defs32724" />
  <sodipodi:namedview
     id="base"
     pagecolor="#ffffff"
     bordercolor="#666666"
     borderopacity="1.0"
     inkscape:pageopacity="0.0"
     inkscape:pageshadow="2"
     inkscape:zoom="0.35"
     inkscape:cx="350"
     inkscape:cy="520"
     inkscape:document-units="px"
     inkscape:current-layer="layer1"
     inkscape:window-width="925"
     inkscape:window-height="573"
     inkscape:window-x="13"
     inkscape:window-y="248" />
  <metadata
     id="metadata32727">
    <rdf:RDF>
      <cc:Work
         rdf:about="">
        <dc:format>image/svg+xml</dc:format>
        <dc:type
           rdf:resource="http://purl.org/dc/dcmitype/StillImage" />
      </cc:Work>
    </rdf:RDF>
  </metadata>
  <g
     inkscape:label="Ebene 1"
     inkscape:groupmode="layer"
     id="layer1"
     transform="translate(-28.48558,-626.2598)">
    <g
       id="g32715"
       transform="matrix(22.0308,0,0,22.0308,-965.991,-7489.275)">
      <path
         style="font-size:5.48140001px;letter-spacing:0;word-spacing:0;fill:#1377c7;fill-rule:nonzero;stroke:none;stroke-width:1;stroke-linecap:butt;stroke-linejoin:miter;stroke-miterlimit:4;stroke-dasharray:none;font-family:fnt2, &quot;Helvetica&quot;, Arial"
         d="M 54.998374,379.93957 C 54.923384,379.95967 54.848384,379.97917 54.785884,379.99687 L 54.385904,380.68837 L 59.048214,380.68837 L 60.523154,378.14977 C 58.710724,378.80247 56.848304,379.41277 54.998374,379.93957 z "
         class="ps01 ps12 ps212"
         id="path32665" />
      <path
         style="font-size:5.48140001px;letter-spacing:0;word-spacing:0;fill:#1377c7;fill-rule:nonzero;stroke:none;stroke-width:1;stroke-linecap:butt;stroke-linejoin:miter;stroke-miterlimit:4;stroke-dasharray:none;font-family:fnt2, &quot;Helvetica&quot;, Arial"
         d="M 54.960874,369.56007 L 52.048494,374.61867 L 51.461024,373.60497 L 52.635974,371.58127 L 51.461024,369.56007 L 46.786214,369.56007 L 48.373644,372.30997 L 48.373644,372.30997 L 50.711054,376.34227 L 51.236034,377.26107 L 52.085994,378.72857 C 52.085994,378.72857 52.085994,378.72857 52.085994,378.72917 L 53.210954,380.68537 L 59.635684,369.56007 L 54.960874,369.56007 z "
         class="ps01 ps12 ps212"
         id="path32667" />
      <path
         style="font-size:5.48140001px;letter-spacing:0;word-spacing:0;fill:#1377c7;fill-rule:nonzero;stroke:none;stroke-width:1;stroke-linecap:butt;stroke-linejoin:miter;stroke-miterlimit:4;stroke-dasharray:none;font-family:fnt2, &quot;Helvetica&quot;, Arial"
         d="M 62.010594,377.59097 L 60.223164,380.68537 L 64.897974,380.68537 L 66.635404,377.64477 L 68.397834,380.68477 L 73.072644,380.68537 L 69.397794,374.32367 C 67.322874,375.39487 64.772974,376.53477 62.010594,377.59097 z "
         class="ps01 ps12 ps212"
         id="path32669" />
      <path
         style="font-size:5.48140001px;letter-spacing:0;word-spacing:0;fill:#1377c7;fill-rule:nonzero;stroke:none;stroke-width:1;stroke-linecap:butt;stroke-linejoin:miter;stroke-miterlimit:4;stroke-dasharray:none;font-family:fnt2, &quot;Helvetica&quot;, Arial"
         d="M 46.061244,380.07017 C 43.811334,382.07747 45.823754,382.38697 50.573554,381.06187 C 50.573554,381.06187 52.585974,380.50527 50.573554,380.94047 C 48.561144,381.37687 47.936164,380.92467 49.236114,379.59227 C 49.661094,379.16137 50.261074,378.66597 50.986044,378.13227 L 50.673554,377.60847 L 50.411064,377.14857 C 48.511144,378.23227 46.986204,379.24367 46.061244,380.07017 z "
         class="ps01 ps12 ps212"
         id="path32671" />
      <path
         style="font-size:5.48140001px;letter-spacing:0;word-spacing:0;fill:#1377c7;fill-rule:nonzero;stroke:none;stroke-width:1;stroke-linecap:butt;stroke-linejoin:miter;stroke-miterlimit:4;stroke-dasharray:none;font-family:fnt2, &quot;Helvetica&quot;, Arial"
         d="M 73.797614,370.16627 C 73.897604,370.07507 73.997604,369.98887 74.072594,369.90637 C 75.860024,368.13387 73.822604,367.90767 69.285294,369.17387 C 69.285294,369.17387 67.685354,369.63757 69.285294,369.29387 C 70.885224,368.95007 71.622694,369.17887 71.147714,369.98387 C 71.097724,370.07507 71.022724,370.17377 70.935224,370.28007 C 70.847734,370.39257 70.735234,370.51257 70.610244,370.64257 C 70.172754,371.08877 69.560284,371.60247 68.797814,372.15627 C 68.647824,372.26497 68.497824,372.37497 68.335334,372.48497 L 66.647904,369.56007 L 63.123044,375.66607 C 62.573064,375.96737 62.010594,376.26607 61.435614,376.56227 L 65.472954,369.56007 L 60.810644,369.56007 L 55.085874,379.47697 L 54.998374,379.62577 L 54.985874,379.63497 C 55.385864,379.49097 55.798344,379.34317 56.198324,379.19137 C 56.210824,379.18647 56.223324,379.18457 56.235824,379.17967 C 56.835804,378.95317 57.448274,378.71517 58.060754,378.46847 C 58.323244,378.36597 58.573234,378.26227 58.823224,378.15727 C 59.573194,377.85097 60.323164,377.54097 61.048134,377.22227 C 64.085504,375.90487 66.972884,374.48487 69.310294,373.16497 C 71.272714,372.05127 72.860144,371.01127 73.797614,370.16627 z "
         class="ps01 ps12 ps212"
         id="path32673" />
    </g>
  </g>
</svg>
